<svg width="41" height="24" viewBox="0 0 41 24" fill="none" xmlns="http://www.w3.org/2000/svg">
<path d="M2 10.5C1.17157 10.5 0.5 11.1716 0.5 12C0.5 12.8284 1.17157 13.5 2 13.5V10.5ZM40.0607 13.0607C40.6464 12.4749 40.6464 11.5251 40.0607 10.9393L30.5147 1.3934C29.9289 0.807612 28.9792 0.807612 28.3934 1.3934C27.8076 1.97918 27.8076 2.92893 28.3934 3.51472L36.8787 12L28.3934 20.4853C27.8076 21.0711 27.8076 22.0208 28.3934 22.6066C28.9792 23.1924 29.9289 23.1924 30.5147 22.6066L40.0607 13.0607ZM2 13.5H39V10.5H2V13.5Z" fill="white"/>
</svg>
