<svg width="50" height="50" viewBox="0 0 50 50" fill="none" xmlns="http://www.w3.org/2000/svg">
<path d="M34 23H32V19C32 15.1 28.9 12 25 12C21.1 12 18 15.1 18 19V23H16V19C16 14 20 10 25 10C30 10 34 14 34 19V23Z" fill="white"/>
<path d="M33 40H17C15.3 40 14 38.7 14 37V25C14 23.3 15.3 22 17 22H33C34.7 22 36 23.3 36 25V37C36 38.7 34.7 40 33 40ZM17 24C16.4 24 16 24.4 16 25V37C16 37.6 16.4 38 17 38H33C33.6 38 34 37.6 34 37V25C34 24.4 33.6 24 33 24H17Z" fill="white"/>
<path d="M25 30C26.1046 30 27 29.1046 27 28C27 26.8954 26.1046 26 25 26C23.8954 26 23 26.8954 23 28C23 29.1046 23.8954 30 25 30Z" fill="white"/>
<path d="M25.5 28H24.5L23.5 34H26.5L25.5 28Z" fill="white"/>
</svg>
