<svg width="44" height="44" viewBox="0 0 44 44" fill="none" xmlns="http://www.w3.org/2000/svg">
<path d="M18.2825 8.19962C18.2825 5.78231 20.242 3.82129 22.6608 3.82129C25.0796 3.82129 27.0391 5.78078 27.0391 8.19962C27.0391 10.6185 25.0796 12.5779 22.6608 12.5779C20.242 12.5779 18.2825 10.6169 18.2825 8.19962ZM23.9839 23.8389C24.924 22.8347 26.241 22.1984 27.9136 21.9389C28.2936 21.8809 28.6964 21.8458 29.1131 21.8214C29.2474 21.8169 29.374 21.8031 29.5083 21.8031H32.1133C30.2012 21.008 28.846 19.1157 28.846 16.9151C28.846 16.0376 29.0642 15.2059 29.4473 14.4794C28.0891 13.9835 26.8362 13.9911 26.8362 13.9911H18.0566C17.0753 14.014 16.2512 14.1376 15.5599 14.3421C15.9888 15.1051 16.2345 15.9842 16.2345 16.9151C16.2345 19.1157 14.8808 21.0065 12.9656 21.8031H15.1204C15.1464 21.8001 15.1708 21.8001 15.1983 21.8001C15.3509 21.8001 15.5172 21.8062 15.6851 21.8184C16.0437 21.8443 16.4359 21.8993 16.8418 21.9817C19.0455 22.4441 21.7039 23.8938 21.9985 27.3642L22.0015 27.442V30.1493H22.554L22.557 27.442C22.554 27.4038 22.4777 25.4474 23.9839 23.8389ZM10.6719 21.3392C13.0862 21.3392 15.0502 19.3751 15.0502 16.9578C15.0502 14.5405 13.0862 12.5795 10.6719 12.5795C8.25458 12.5795 6.29356 14.5405 6.29356 16.9578C6.29356 19.3736 8.2561 21.3392 10.6719 21.3392ZM14.8457 22.7508H6.0677C-0.216704 22.8668 0.00152608 27.4862 0.00152608 27.4862L0 38.2543H0.00610433C0.00610433 38.2802 0.00152608 38.3077 0.00152608 38.3306C0.00152608 39.3531 0.833241 40.1787 1.85266 40.1787C2.87361 40.1787 3.6977 39.3531 3.6977 38.3306C3.6977 38.3062 3.69464 38.2802 3.69007 38.2543H3.6977V28.2859H4.85447L4.84531 38.9044L15.9338 38.9136L15.9247 28.2371H17.1242V38.2528H17.1303C17.1303 38.2573 17.1303 38.2619 17.1303 38.268C17.1303 39.289 17.9559 40.1161 18.9723 40.1161C19.9932 40.1161 20.8203 39.289 20.8203 38.268C20.8203 38.2619 20.8203 38.2573 20.8203 38.2528V27.4847C20.4159 22.6791 14.8457 22.7508 14.8457 22.7508ZM33.8561 21.3377C36.275 21.3377 38.236 19.3766 38.236 16.9578C38.236 14.539 36.275 12.5779 33.8561 12.5779C31.4373 12.5779 29.4763 14.539 29.4763 16.9578C29.4778 19.3766 31.4373 21.3377 33.8561 21.3377ZM38.0315 22.7508H29.2504C22.9645 22.8668 23.1873 27.4862 23.1873 27.4862L23.1842 38.2543H23.1919C23.1919 38.2802 23.1873 38.3077 23.1873 38.3306C23.1873 39.3531 24.0175 40.1787 25.0369 40.1787C26.0579 40.1787 26.8804 39.3531 26.8804 38.3306C26.8804 38.3062 26.8758 38.2802 26.8743 38.2543H26.8804V28.2859H28.0402L28.0265 38.9044L39.115 38.9136L39.1059 28.2371H40.3054V38.2528H40.3084C40.3084 38.2573 40.3084 38.2619 40.3084 38.268C40.3084 39.289 41.1355 40.1161 42.155 40.1161C43.1729 40.1161 44 39.289 44 38.268C44 38.2619 44 38.2573 44 38.2528V27.4847C43.6002 22.6791 38.0315 22.7508 38.0315 22.7508Z" fill="white"/>
</svg>
